<?xml version="1.0" encoding="UTF-8"?>
<svg width="36px" height="36px" viewBox="0 0 36 36" version="1.1" xmlns="http://www.w3.org/2000/svg" xmlns:xlink="http://www.w3.org/1999/xlink">
    <!-- Generator: Sketch 49 (51002) - http://www.bohemiancoding.com/sketch -->
    <title>User Icon</title>
    <desc>Created with Sketch.</desc>
    <defs>
        <circle id="path-1" cx="17" cy="17" r="17"></circle>
        <circle id="path-3" cx="17" cy="17" r="17"></circle>
    </defs>
    <g id="Symbols" stroke="none" stroke-width="1" fill="none" fill-rule="evenodd">
        <g id="Header" transform="translate(-1751.000000, -22.000000)">
            <g id="User-Icon" transform="translate(1752.000000, 23.000000)">
                <circle id="Oval" fill-opacity="0.613932292" fill="#FFFFFF" cx="17" cy="17" r="17"></circle>
                <g id="Shape">
                    <mask id="mask-2" fill="white">
                        <use xlink:href="#path-1"></use>
                    </mask>
                    <g id="Mask"></g>
                    <path d="M30.4210526,34 C30.4210526,25.960187 25.4502924,26.1755391 22.1619433,24.6680742 C21.091318,24.1655859 20.5560054,23.7348816 20.4030589,23.2323933 C20.4795322,23.0170412 20.4795322,22.8734731 20.4795322,22.6581209 C20.4795322,22.4427688 20.5560054,22.0838486 20.7089519,21.8684965 C20.7854251,21.6531443 21.0148448,21.5813603 21.091318,21.3660081 C21.2442645,21.150656 21.3207377,20.8635198 21.4736842,20.6481677 C21.5501574,20.4328156 21.6266307,20.2174634 21.7795771,20.0738953 C21.8560504,19.9303273 22.0089969,19.7867592 22.0854701,19.6431911 C22.1619433,19.4278389 22.0854701,19.0689187 22.0854701,18.8535666 C22.0854701,18.6382144 22.1619433,18.3510783 22.2384166,18.1357261 C22.3148898,17.84859 22.391363,17.6332378 22.391363,17.3461016 C22.4678363,17.0589655 22.6207827,16.8436133 22.697256,16.5564772 C22.7737292,16.269341 22.697256,16.1257729 22.697256,15.8386367 L22.697256,15.1925803 C22.7737292,14.761876 22.7737292,14.2593877 22.7737292,13.8286835 C22.7737292,13.6133313 22.697256,13.5415473 22.6207827,13.3261951 C22.5443095,13.1826271 22.5443095,12.9672749 22.5443095,12.8237068 C22.5443095,12.3212185 22.3148898,12.1058664 22.0089969,11.7469462 C21.8560504,11.6033781 21.7795771,11.3880259 21.7031039,11.2444578 C21.5501574,11.0291057 21.397211,10.8137536 21.1677913,10.5984014 C21.0148448,10.4548334 20.8618983,10.2394812 20.6324786,10.0959131 C20.0206928,9.52164078 19.1030139,9.09093651 17.802969,9.01915247 C17.5735493,8.94736842 17.4206028,8.94736842 17.1911831,8.94736842 L16.9617634,8.94736842 L16.8088169,8.94736842 C16.5793972,8.94736842 16.4264507,8.94736842 16.197031,9.01915247 C14.9734593,9.16272055 14.0557805,9.52164078 13.3675214,10.0959131 C13.2145749,10.2394812 12.9851552,10.3830493 12.8322087,10.5984014 C12.6792623,10.8137536 12.5263158,11.0291057 12.2968961,11.2444578 C12.1439496,11.3880259 12.0674764,11.6033781 11.9910031,11.7469462 C11.7615834,12.1058664 11.5321637,12.3212185 11.4556905,12.8237068 C11.4556905,13.039059 11.4556905,13.1826271 11.3792173,13.3261951 C11.302744,13.4697632 11.2262708,13.6133313 11.2262708,13.8286835 C11.2262708,14.2593877 11.2262708,14.761876 11.302744,15.1925803 C11.302744,15.4079324 11.3792173,15.6232846 11.302744,15.8386367 C11.2262708,16.1257729 11.1497976,16.269341 11.302744,16.5564772 C11.3792173,16.8436133 11.5321637,17.0589655 11.608637,17.3461016 C11.6851102,17.6332378 11.7615834,17.84859 11.7615834,18.1357261 C11.8380567,18.3510783 11.9145299,18.6382144 11.9145299,18.8535666 C11.9145299,19.1407028 11.8380567,19.4278389 11.9145299,19.6431911 C11.9910031,19.7867592 12.1439496,19.9303273 12.2204229,20.0738953 C12.3733693,20.2174634 12.4498426,20.4328156 12.5263158,20.6481677 C12.602789,20.8635198 12.7557355,21.150656 12.908682,21.3660081 C12.9851552,21.5813603 13.2145749,21.6531443 13.2910481,21.8684965 C13.4439946,22.0838486 13.5204678,22.3709848 13.5204678,22.6581209 C13.5204678,22.8734731 13.5204678,23.0888252 13.5969411,23.2323933 C13.3675214,23.7348816 12.908682,24.2373699 11.8380567,24.6680742 C8.5497076,26.1755391 3.57894737,25.960187 3.57894737,34 L30.4210526,34 Z" fill="#FFFFFF" fill-rule="nonzero" mask="url(#mask-2)"></path>
                    <mask id="mask-4" fill="white">
                        <use xlink:href="#path-3"></use>
                    </mask>
                    <use id="Mask" stroke="#FFFFFF" xlink:href="#path-3"></use>
                </g>
            </g>
        </g>
    </g>
</svg>